# xmcd CD database file
#
# Track frame offsets:
#	150
#	22810
#	39400
#	55652
#	68135
#	81867
#	113187
#	130725
#	151265
#	163935
#	188137
#	203922
#	218637
#	231975
#	246467
#	276722
#	290760
#	307147
#
# Disc length: 4580 seconds
#
# Revision: 2
# Processed by: cddbd v1.5.1PL0 Copyright (c) Steve Scherf et al.
# Submitted via: CDex 1.51
#
DISCID=0e11e212
DTITLE=Oswaldo Montenegro - Letras Brasileiras Ao Vivo
DYEAR=1999
DGENRE=MPB
TTITLE0=Mucuripe
TTITLE1=Sinal Fechado
TTITLE2=A Lista
TTITLE3=Vagamente-Nós e o Mar-O Barquinho
TTITLE4=Eu Sonhei que Tu Estavas Tão Linda
TTITLE5=Todo o Sentimento-Maracangalha
TTITLE6=João Valentão
TTITLE7=Três Apitos
TTITLE8=Pó
TTITLE9=Improviso
TTITLE10=Meu Amigo, Meu Herói
TTITLE11=Fim de Caso
TTITLE12=Na Hora do Almoço
TTITLE13=Valsinha
TTITLE14=Sem Fantasia-Soneto da Separação
TTITLE15=Eu Não Existo Sem Você
TTITLE16=Letras Brasileiras
TTITLE17=Samba da Bênção
EXTD=\n\n\n YEAR: 1999
EXTT0=
EXTT1=
EXTT2=
EXTT3=
EXTT4=
EXTT5=
EXTT6=
EXTT7=
EXTT8=
EXTT9=
EXTT10=
EXTT11=
EXTT12=
EXTT13=
EXTT14=
EXTT15=
EXTT16=
EXTT17=
PLAYORDER=
